# xmcd
# 
# Track frame offsets:
#     180
#     15648
#     31068
#     48565
#     66907
#     89003
#     108461
#     122830
#     146903
#     162838
#     187661
#     204994
#     233962
#     261144
#     286129
# 
# Disc length: 4142
# 
# Revision: 3
# Processed by: cddbd v1.5.2PL0 Copyright (c) Steve Scherf et al.
# Submitted via: fre:ac v1.0.27
# 
DISCID=d2102c0f
DTITLE=Black and Blue - BLACK and BLUE VOL. 1 - THE STORY OF THE BLUES 1963-1976 - CD2
DYEAR=1994
DGENRE=Blues
TTITLE0=Jimmy Rogers - Sloopy drunk
TTITLE1=Willie Mabon - I'm mad
TTITLE2=Mickey Baker - Drucilla
TTITLE3=LLoyd Glenn - Low society
TTITLE4=Big Voice Odom - Don't ever leave me alone
TTITLE5=Otis Rush - Everyday I have the blues
TTITLE6=Sunnyland Slim - Prison bound blues
TTITLE7=Roy Gaines - Got the boogie
TTITLE8=Sammy Price - Black and Blue blues
TTITLE9=Lonnie Brooks - Crazy about you baby
TTITLE10=Little Mac Simmons - (You got to) Help me
TTITLE11=Luther Johnson - Lonesome in my bedroom
TTITLE12=gene "Mighty Flea" Conners - Let the good times roll
TTITLE13=Luther Johnson Jr. - Luther's blues
TTITLE14=Pinetop Perkins - So many days
EXTD=Frémeaux et Associés\nFA030 YEAR: 1994
EXTT0=
EXTT1=
EXTT2=
EXTT3=
EXTT4=
EXTT5=
EXTT6=
EXTT7=
EXTT8=
EXTT9=
EXTT10=
EXTT11=
EXTT12=
EXTT13=
EXTT14=
PLAYORDER=
